<svg width="24" height="24" viewBox="0 0 24 24" fill="none" xmlns="http://www.w3.org/2000/svg">
<path fill-rule="evenodd" clip-rule="evenodd" d="M14.2578 10L12 20.3213L9.74219 10H14.2578ZM3.11816 9.9248C3.23575 9.97338 3.36487 10 3.5 10H7.69531L9.4082 17.833L3.66211 10.8096C3.33765 10.413 3.17569 10.2143 3.12598 9.97363C3.12264 9.95743 3.12043 9.94113 3.11816 9.9248ZM20.874 9.97363C20.8243 10.2143 20.6615 10.4128 20.3369 10.8096L14.5908 17.833L16.3047 10H20.5C20.635 9.99998 20.7634 9.97234 20.8809 9.92383C20.8786 9.94043 20.8774 9.95716 20.874 9.97363ZM15.9824 3C17.4345 3 18.1607 3.00016 18.6953 3.40332C19.23 3.80662 19.4301 4.50503 19.8291 5.90137L20.4277 8H16.3291L15.3916 3H15.9824ZM8.6084 3L7.6709 8H3.57129L4.1709 5.90137C4.5698 4.50522 4.7692 3.80665 5.30371 3.40332C5.83833 3.00006 6.56467 3 8.0166 3H8.6084ZM13.3584 3L14.2959 8H9.7041L10.6416 3H13.3584Z" fill="#222222"/>
</svg>
