<svg width="47" height="47" viewBox="0 0 47 47" fill="none" xmlns="http://www.w3.org/2000/svg">
<path d="M20.5625 23.5H23.5V31.3333H27.4167M23.5 15.6667H23.5196M26.5605 40.8572C28.8399 40.4553 31.0178 39.6084 32.9699 38.3648C34.922 37.1212 36.61 35.5053 37.9376 33.6093C39.2651 31.7133 40.2063 29.5744 40.7072 27.3147C41.2082 25.0551 41.2592 22.7188 40.8572 20.4394C40.4553 18.1601 39.6084 15.9822 38.3648 14.0301C37.1212 12.078 35.5052 10.39 33.6093 9.06244C31.7133 7.73487 29.5744 6.79374 27.3147 6.29278C25.0551 5.79182 22.7188 5.74085 20.4394 6.14276C18.1601 6.54468 15.9822 7.39162 14.0301 8.63523C12.078 9.87883 10.39 11.4948 9.06244 13.3907C7.73487 15.2867 6.79374 17.4256 6.29278 19.6853C5.79182 21.9449 5.74085 24.2812 6.14276 26.5606C6.54468 28.8399 7.39162 31.0178 8.63523 32.9699C9.87883 34.922 11.4948 36.61 13.3907 37.9376C15.2867 39.2651 17.4256 40.2063 19.6853 40.7072C21.9449 41.2082 24.2812 41.2592 26.5605 40.8572Z" stroke="black" stroke-width="3" stroke-linecap="round" stroke-linejoin="round"/>
</svg>
