<svg width="61" height="61" viewBox="0 0 61 61" fill="none" xmlns="http://www.w3.org/2000/svg">
<path d="M30.4998 33.0417V52.4729C30.4998 52.8718 30.4998 53.0712 30.371 53.1426C30.2422 53.214 30.0731 53.1083 29.7348 52.8969L11.1065 41.2542C10.647 40.967 10.4172 40.8234 10.2919 40.5972C10.1665 40.371 10.1665 40.1001 10.1665 39.5582V20.3333M30.4998 33.0417L10.1665 20.3333M30.4998 33.0417L48.1196 22.0293C49.3374 21.2682 49.9464 20.8876 49.9464 20.3333C49.9464 19.7791 49.3374 19.3985 48.1196 18.6373L31.5598 8.2875C31.0444 7.96533 30.7866 7.80425 30.4998 7.80425C30.213 7.80425 29.9553 7.96533 29.4398 8.2875L10.1665 20.3333" stroke="black" stroke-width="3" stroke-linejoin="round"/>
<path d="M49.3332 30.5C49.3332 31.3284 50.0047 32 50.8332 32C51.6616 32 52.3332 31.3284 52.3332 30.5H50.8332H49.3332ZM50.7078 20.4028L52.0198 19.6756L50.7078 20.4028ZM50.8332 21.4418H49.3332V30.5H50.8332H52.3332V21.4418H50.8332ZM49.8932 19.7458L50.6882 18.4738L41.4615 12.7071L40.6665 13.9791L39.8715 15.2511L49.0982 21.0178L49.8932 19.7458ZM50.8332 21.4418H52.3332C52.3332 21.1991 52.3348 20.9125 52.3107 20.661C52.2836 20.3777 52.217 20.0314 52.0198 19.6756L50.7078 20.4028L49.3958 21.1299C49.3632 21.071 49.3429 21.0154 49.3316 20.9732C49.3216 20.936 49.3219 20.9213 49.3243 20.9468C49.3269 20.9739 49.3298 21.0225 49.3315 21.1106C49.3331 21.1989 49.3332 21.3023 49.3332 21.4418H50.8332ZM49.8932 19.7458L49.0982 21.0178C49.2165 21.0917 49.3041 21.1466 49.3781 21.1948C49.4519 21.2428 49.4916 21.2711 49.5132 21.2876C49.5335 21.3032 49.521 21.2957 49.4947 21.2675C49.4649 21.2355 49.4285 21.1889 49.3958 21.1299L50.7078 20.4028L52.0198 19.6756C51.8226 19.3199 51.5643 19.0798 51.3384 18.9067C51.1378 18.753 50.894 18.6024 50.6882 18.4738L49.8932 19.7458Z" fill="black"/>
<circle cx="44.4792" cy="41.9375" r="6.35417" stroke="black" stroke-width="3"/>
<path d="M53.375 50.8334L49.5625 47.0209" stroke="black" stroke-width="3" stroke-linecap="round"/>
<path d="M36.3785 51.47C37.081 51.0309 37.2946 50.1055 36.8555 49.403C36.4164 48.7005 35.491 48.4869 34.7885 48.926L35.5835 50.198L36.3785 51.47ZM29.4402 52.7125L30.2352 51.4405L29.4402 52.7125ZM30.5002 53.1958V51.6958V53.1958ZM29.4402 52.7125L30.2352 51.4405L21.1285 45.7489L20.3335 47.0209L19.5385 48.2929L28.6452 53.9845L29.4402 52.7125ZM33.0418 51.7865L32.2468 50.5145L30.7652 51.4405L31.5602 52.7125L32.3552 53.9845L33.8368 53.0585L33.0418 51.7865ZM35.5835 50.198L34.7885 48.926L33.5177 49.7202L34.3127 50.9922L35.1077 52.2642L36.3785 51.47L35.5835 50.198ZM34.3127 50.9922L33.5177 49.7202L32.2468 50.5145L33.0418 51.7865L33.8368 53.0585L35.1077 52.2642L34.3127 50.9922ZM29.4402 52.7125L28.6452 53.9845C28.8766 54.1292 29.146 54.2998 29.397 54.4225C29.6795 54.5606 30.0478 54.6958 30.5002 54.6958V53.1958V51.6958C30.5749 51.6958 30.64 51.7071 30.6872 51.7202C30.7284 51.7317 30.7417 51.7406 30.7148 51.7274C30.6864 51.7136 30.6375 51.6872 30.5521 51.6362C30.4666 51.5851 30.3677 51.5234 30.2352 51.4405L29.4402 52.7125ZM31.5602 52.7125L30.7652 51.4405C30.6326 51.5234 30.5337 51.5851 30.4482 51.6362C30.3629 51.6872 30.3139 51.7136 30.2855 51.7274C30.2587 51.7406 30.2719 51.7317 30.3131 51.7202C30.3603 51.7071 30.4254 51.6958 30.5002 51.6958V53.1958V54.6958C30.9526 54.6958 31.3208 54.5606 31.6033 54.4225C31.8543 54.2998 32.1238 54.1292 32.3552 53.9845L31.5602 52.7125Z" fill="black"/>
</svg>
