<svg width="30" height="30" viewBox="0 0 30 30" fill="none" xmlns="http://www.w3.org/2000/svg">
<path fill-rule="evenodd" clip-rule="evenodd" d="M15.7891 2.5C16.5522 2.5 16.9338 2.50045 17.2031 2.70703C17.2461 2.73999 17.2872 2.77596 17.3242 2.81543C17.5564 3.0629 17.5942 3.44291 17.6699 4.20215C17.8141 5.64764 17.8863 6.37014 18.3398 6.625C18.4089 6.66381 18.4823 6.69435 18.5586 6.71582C19.0595 6.85655 19.6223 6.39667 20.7471 5.47656C21.3381 4.99308 21.6342 4.7517 21.9736 4.74121C22.0273 4.73958 22.0815 4.74203 22.1348 4.74902C22.4712 4.79343 22.741 5.06327 23.2803 5.60254L24.3975 6.71973C24.9368 7.25905 25.2067 7.52879 25.251 7.86523C25.258 7.91889 25.2605 7.97325 25.2588 8.02734C25.2481 8.36649 25.0065 8.66171 24.5234 9.25195C23.6034 10.3761 23.1436 10.9385 23.2842 11.4395C23.3056 11.5158 23.3362 11.59 23.375 11.6592C23.6299 12.1124 24.3527 12.1844 25.7979 12.3291C26.5576 12.4052 26.9372 12.4442 27.1846 12.6768C27.2238 12.7136 27.2602 12.7532 27.293 12.7959C27.4997 13.0652 27.5 13.4468 27.5 14.21V15.79C27.5 16.5529 27.4995 16.9348 27.293 17.2041C27.2601 17.2469 27.2239 17.2873 27.1846 17.3242C26.9372 17.5564 26.557 17.594 25.7979 17.6699C24.3528 17.8144 23.6307 17.8873 23.376 18.3408C23.3371 18.41 23.3056 18.4832 23.2842 18.5596C23.1436 19.0604 23.6037 19.6229 24.5234 20.7471C25.0065 21.3374 25.2481 21.6326 25.2588 21.9717C25.2605 22.0258 25.258 22.0801 25.251 22.1338C25.2067 22.4702 24.9368 22.7398 24.3975 23.2793L23.2803 24.3965C22.7408 24.9361 22.4713 25.2066 22.1348 25.251C22.0812 25.258 22.0267 25.2605 21.9727 25.2588C21.6334 25.2481 21.3377 25.0067 20.7471 24.5234C19.6226 23.6034 19.0606 23.1434 18.5596 23.2842C18.4833 23.3056 18.4099 23.3362 18.3408 23.375C17.8871 23.6298 17.8144 24.3522 17.6699 25.7979C17.594 26.5571 17.5564 26.9371 17.3242 27.1846C17.2873 27.2238 17.2468 27.2602 17.2041 27.293C16.9348 27.4997 16.5524 27.5 15.7891 27.5H14.21C13.4468 27.5 13.0652 27.4997 12.7959 27.293C12.7532 27.2602 12.7136 27.2238 12.6768 27.1846C12.4442 26.9372 12.4052 26.5576 12.3291 25.7979C12.1844 24.3527 12.1124 23.6299 11.6592 23.375C11.59 23.3362 11.5158 23.3056 11.4395 23.2842C10.9385 23.1436 10.3761 23.6034 9.25195 24.5234C8.66171 25.0065 8.36649 25.2481 8.02734 25.2588C7.97325 25.2605 7.91889 25.258 7.86523 25.251C7.52879 25.2067 7.25905 24.9368 6.71973 24.3975L5.60254 23.2803C5.06327 22.741 4.79343 22.4712 4.74902 22.1348C4.74203 22.0815 4.73958 22.0273 4.74121 21.9736C4.7517 21.6342 4.99308 21.3381 5.47656 20.7471C6.39667 19.6223 6.85655 19.0595 6.71582 18.5586C6.69435 18.4823 6.66381 18.4089 6.625 18.3398C6.37014 17.8863 5.64764 17.8141 4.20215 17.6699C3.44291 17.5942 3.0629 17.5564 2.81543 17.3242C2.77596 17.2872 2.73999 17.2461 2.70703 17.2031C2.50045 16.9338 2.5 16.5522 2.5 15.7891V14.21C2.5 13.4469 2.50032 13.0652 2.70703 12.7959C2.73982 12.7532 2.7762 12.7127 2.81543 12.6758C3.06284 12.4436 3.44298 12.4051 4.20215 12.3291C5.64753 12.1843 6.37037 12.112 6.625 11.6582C6.66369 11.5892 6.69442 11.5156 6.71582 11.4395C6.85629 10.9386 6.39626 10.376 5.47656 9.25195C4.99355 8.66161 4.75196 8.36647 4.74121 8.02734C4.73953 7.97336 4.74198 7.91878 4.74902 7.86523C4.79335 7.5288 5.06326 7.25916 5.60254 6.71973L6.71973 5.60254C7.25927 5.06285 7.52872 4.79243 7.86523 4.74805C7.91886 4.74098 7.97328 4.73855 8.02734 4.74023C8.36659 4.7509 8.66233 4.99237 9.25293 5.47559C10.3768 6.3951 10.9386 6.85532 11.4395 6.71484C11.5158 6.6934 11.59 6.66286 11.6592 6.62402C12.1126 6.36922 12.1844 5.64606 12.3291 4.20117C12.4051 3.44233 12.4436 3.06277 12.6758 2.81543C12.7127 2.77613 12.7531 2.73987 12.7959 2.70703C13.0652 2.50043 13.4469 2.5 14.21 2.5H15.7891ZM15 10C12.2386 10 10 12.2386 10 15C10 17.7614 12.2386 20 15 20C17.7614 20 20 17.7614 20 15C20 12.2386 17.7614 10 15 10Z" fill="white"/>
</svg>
